<?xml version="1.0" encoding="utf-8"?>
<!-- Generator: Adobe Illustrator 24.3.0, SVG Export Plug-In . SVG Version: 6.00 Build 0)  -->
<svg version="1.1" id="Capa_1" xmlns="http://www.w3.org/2000/svg" xmlns:xlink="http://www.w3.org/1999/xlink" x="0px" y="0px"
	 viewBox="0 0 574.1 200" style="enable-background:new 0 0 574.1 200;" xml:space="preserve">
<style type="text/css">
	.st0{fill:#17322B;}
	.st1{fill:#8EAE40;}
	.st2{fill-rule:evenodd;clip-rule:evenodd;fill:#213A31;}
	.st3{fill-rule:evenodd;clip-rule:evenodd;fill:#8EAF43;}
</style>
<g>
	<g>
		<path class="st0" d="M218,113.6l0.1-0.5l-0.7-2l-1.5,0.5c-6.2,3-12.9,4.4-19.9,4.4c-12.4,0-24.2-4.9-33.4-13.6
			c-9.3-8.8-15.1-20.8-16.1-33.6v-0.3l-0.2-0.2c0-2-1.9-3.9-3.8-5c1.9-1.4,3.8-3,3.8-5l0.2-0.2v-0.3c1-12.8,6.8-24.7,16.1-33.6
			c9.2-8.8,21-13.8,33.4-13.8c14.9,0,28.8,7,38.4,19.1l-11.5,12.4c-6.4-8.8-16.2-14.1-26.9-14.1c-18.3,0-33.4,15.8-33.4,35.5
			c0,19.4,15.1,35.2,33.4,35.2c8.4,0,16.2-3.1,22.4-8.8l0.4-0.5V75.2l-20.5-0.3c-2.8,0-5.8,0.8-7.8,2V57.6h44.9v49.9
			c0,0.5,0,5.2,1.9,8.5H217C217.4,115.2,217.6,114.5,218,113.6z"/>
		<path class="st0" d="M323.3,113.6l0.1-0.5l-0.7-2l-1.5,0.5c-6.2,3-12.9,4.4-19.9,4.4c-12.4,0-24.2-4.9-33.4-13.6
			c-9.3-8.8-15.1-20.8-16.1-33.6v-0.3l-0.2-0.2c0-2-1.9-3.9-3.8-5c1.9-1.4,3.8-3,3.8-5l0.2-0.2v-0.3c1-12.8,6.8-24.7,16.1-33.6
			c9.2-8.8,21-13.8,33.4-13.8c14.9,0,28.8,7,38.4,19.1l-11.5,12.4c-6.4-8.8-16.2-14.1-26.9-14.1C283,27.7,268,43.5,268,63.2
			c0,19.4,15.1,35.2,33.4,35.2c8.4,0,16.2-3.1,22.4-8.8l0.4-0.5V75.2l-20.5-0.3c-2.8,0-5.8,0.8-7.8,2V57.6h44.9v49.9
			c0,0.5,0,5.2,1.9,8.5h-20.4C322.7,115.2,322.9,114.5,323.3,113.6z"/>
		<path class="st1" d="M366.8,107.8l-0.3-38.7c-0.1-2-2.4-4.1-4.3-5.3c2.1-1.1,4.1-3,4.1-5L366.2,20c0-0.3,0-5.2-2.2-8.5h27.8
			c11.4,0,19.1,1.9,26.6,6.6c6.4,3.9,10,10.8,10,18.9c0,9.1-5.2,16.4-14,20.3l-1,0.3v2.7l1,0.3c10.8,3.1,17.1,12.4,17.1,23.8
			c0,8.1-0.7,19.7-8.6,26.1c-6.5,5.3-17.7,5.3-34.9,5.3h-0.9c-6.3,0-16.4,0-22.3,0C366.8,112.8,366.8,108,366.8,107.8z M385.2,26.9
			l-1.3,0.3v26.9h8.4c11.5,0,18.4-5.3,18.4-14.2c0-8.5-6.2-13.5-16.4-13.5C390.5,26.4,387.5,26.4,385.2,26.9z M385.3,99.8
			c2.2,0.3,4.6,0.3,8.3,0.3c12,0,19.2-6.4,19.2-16.7c0-9.9-7.5-15.8-20.2-15.8h-8.7v32.1L385.3,99.8z"/>
	</g>
	<g>
		<g>
			<path class="st2" d="M494.6,146c1.5-2.4,2.9-4.8,4.6-7.1c9.1-12.9,16.6-18,30.2-18.6c11.9-0.6,21.8-0.5,35.7-0.5
				c-3,5.7-9.1,12.6-26.5,20.1C508.8,150.5,514.3,144.2,494.6,146z"/>
			<path class="st3" d="M494.6,146c19.8-1.8,39.2-4.8,56.9-14.6c5.3-3,10.6-5.9,13.6-11.6c1.7-0.1,3.2-0.1,3.2-0.1
				s-14.7,26.5-37.9,32.2c-15.2,3.7-38.1-3.6-38.1-3.6S493.3,147,494.6,146z"/>
			<g>
				<path class="st2" d="M490.2,160.7c2.3-0.6,4.5-1.3,6.9-1.8c13-2.7,20.5-1.5,29.2,5.8c7.7,6.5,13.7,12.2,22.2,20.2
					c-5.1,1.8-12.8,2.6-27.7-2.8C496.3,171.6,503.4,170.9,490.2,160.7z"/>
				<path class="st3" d="M490.2,160.7c13.2,10.2,26.9,19.5,43.4,23.6c4.9,1.2,9.9,2.5,15,0.6c1.1,0.9,2,1.8,2,1.8
					s-24.2,7.9-41.8-1.9c-11.5-6.4-21.4-24-21.4-24S488.8,160.6,490.2,160.7z"/>
			</g>
			<g>
				<path class="st2" d="M479.7,149.5c-1.6-1.8-3.2-3.5-4.7-5.3c-8.4-10.3-10.7-17.6-8.1-28.7c2.2-9.8,4.6-17.8,7.8-29
					c4,3.7,8.1,10.2,10.1,26C486.7,139.1,482.8,133.1,479.7,149.5z"/>
				<path class="st3" d="M479.7,149.5c3.1-16.4,5.2-32.8,1.3-49.4c-1.2-5-2.3-10-6.3-13.7c0.3-1.4,0.7-2.6,0.7-2.6s18,18,17.3,38.1
					c-0.5,13.1-11.6,30-11.6,30S480.2,150.8,479.7,149.5z"/>
			</g>
		</g>
		<g>
			<path class="st2" d="M79.5,146c-1.5-2.4-2.9-4.8-4.6-7.1c-9.1-12.9-16.6-18-30.2-18.6c-11.9-0.6-21.8-0.5-35.7-0.5
				c2.9,5.7,9.1,12.6,26.5,20.1C65.3,150.5,59.7,144.2,79.5,146z"/>
			<path class="st3" d="M79.5,146c-19.8-1.8-39.2-4.8-56.9-14.6c-5.3-3-10.6-5.9-13.6-11.6c-1.7-0.1-3.2-0.1-3.2-0.1
				s14.7,26.5,38,32.2c15.2,3.7,38.1-3.6,38.1-3.6S80.8,147,79.5,146z"/>
			<g>
				<path class="st2" d="M83.9,160.7c-2.3-0.6-4.5-1.3-6.9-1.8c-13-2.7-20.5-1.5-29.2,5.8c-7.7,6.5-13.7,12.2-22.2,20.2
					c5.1,1.8,12.8,2.6,27.8-2.8C77.8,171.6,70.7,170.9,83.9,160.7z"/>
				<path class="st3" d="M83.9,160.7c-13.2,10.2-26.9,19.5-43.4,23.6c-5,1.2-9.9,2.5-15,0.6c-1.1,0.9-2.1,1.8-2.1,1.8
					s24.2,7.9,41.8-1.9c11.5-6.4,21.4-24,21.4-24S85.3,160.6,83.9,160.7z"/>
			</g>
			<g>
				<path class="st2" d="M94.4,149.5c1.6-1.8,3.2-3.5,4.7-5.3c8.4-10.3,10.7-17.6,8.1-28.7c-2.2-9.8-4.6-17.8-7.9-29
					c-3.9,3.7-8.1,10.2-10.1,26C87.4,139.1,91.3,133.1,94.4,149.5z"/>
				<path class="st3" d="M94.4,149.5c-3.1-16.4-5.2-32.8-1.3-49.4c1.2-5,2.3-10,6.3-13.7c-0.3-1.4-0.6-2.6-0.6-2.6s-18,18-17.3,38.1
					c0.5,13.1,11.6,30,11.6,30S93.8,150.8,94.4,149.5z"/>
			</g>
		</g>
		<path class="st2" d="M446.2,144.1c-16.5,9.9-29.7,17.2-52,17.2c-448-0.4,224.7-0.3-223.3-0.2c-15.9,0-32.9-9.3-43.6-17.4
			c17.9,1.8,35.5,2.6,53.2,2.6c18.5-0.1,37,1.1,55.4,1.1c404.9,0.1-310.9,0.3,94-0.3C368.4,147.1,407.3,149.1,446.2,144.1z"/>
	</g>
</g>
</svg>
