<svg width="334" height="334" viewBox="0 0 334 334" fill="none" xmlns="http://www.w3.org/2000/svg">
<g filter="url(#filter0_d)">
<rect x="4" width="326" height="326" rx="163" fill="#F3F7E0"/>
<path d="M273.684 216.738C273.506 216.371 273.332 216.003 273.16 215.636C272.816 214.896 272.486 214.153 272.17 213.409C271.045 210.748 270.084 208.038 269.292 205.289C268.403 202.56 267.777 199.773 267.421 196.955C267.421 197.12 267.604 198.187 267.504 197.456L267.421 196.862C267.376 196.566 267.337 196.27 267.304 195.974C267.215 195.282 267.135 194.59 267.063 193.898C266.924 192.514 266.827 191.127 266.772 189.738C266.655 186.909 266.708 184.077 266.93 181.253C267.041 179.869 267.19 178.485 267.379 177.1C267.379 176.807 267.462 176.52 267.504 176.234L267.545 175.983C267.667 175.296 267.798 174.611 267.936 173.928C268.452 171.427 269.104 168.95 269.891 166.496L313.01 187.482C314.219 188.056 315.227 188.899 315.928 189.922C316.63 190.945 317 192.112 317 193.3C317 194.488 316.63 195.655 315.928 196.678C315.227 197.701 314.219 198.543 313.01 199.117L274.316 217.92L273.8 216.967L273.684 216.738Z" fill="#96CF40"/>
<path d="M179.751 156.887L172.531 160.367C171.242 160.99 169.969 161.62 168.672 162.229L168.256 162.415H168.214L166.767 161.735L163.365 160.067C161.041 158.945 158.721 157.816 156.403 156.68C151.706 154.379 147.029 152.05 142.371 149.692C127.487 142.164 112.806 134.36 98.3279 126.278L135.151 108.514C137.531 107.363 140.215 106.759 142.945 106.759C145.674 106.759 148.358 107.363 150.738 108.514L215.102 139.839L194.374 149.863L179.751 156.887Z" fill="#96CF40"/>
<path d="M165.619 228.803C166.326 228.858 167.038 228.792 167.715 228.61C174.464 226.763 181.201 224.887 187.927 222.982C210.751 216.524 233.442 209.745 256 202.647C257.457 209.732 259.973 216.625 263.486 223.154L199.215 254.408C196.66 255.649 193.776 256.301 190.843 256.301C187.909 256.301 185.026 255.649 182.471 254.408L162.916 244.842C163.742 240.231 164.527 235.612 165.27 230.987C165.386 230.257 165.502 229.529 165.619 228.803Z" fill="#96CF40"/>
<path d="M254.545 192.015C248.273 193.991 241.99 195.946 235.697 197.879C213.028 204.824 190.229 211.452 167.299 217.762C169.517 202.602 171.289 187.406 172.614 172.174C173.036 172.031 173.454 171.876 173.87 171.709C176.366 170.692 178.744 169.403 181.148 168.243L188.759 164.577L203.59 157.417L227.545 145.868L258.837 161.098C258.36 162.401 257.922 163.713 257.522 165.036C254.895 173.839 253.891 182.943 254.545 192.015Z" fill="#96CF40"/>
<path d="M21.0804 163.646L86.3336 132.085C95.0174 136.992 103.776 141.801 112.61 146.512C116.879 148.789 121.169 151.042 125.477 153.272C121.08 155.544 116.691 157.825 112.31 160.117C92.669 170.394 73.1693 180.845 53.811 191.47L21.0471 175.453C19.8186 174.871 18.7946 174.015 18.0826 172.975C17.3705 171.935 16.9966 170.749 17 169.541C17.0034 168.334 17.384 167.15 18.1019 166.113C18.8198 165.076 19.8486 164.224 21.0804 163.646Z" fill="#96CF40"/>
<path d="M137.397 159.351L140.765 161.055C145.501 163.441 150.253 165.783 155.022 168.079C156.786 168.931 158.532 169.826 160.312 170.663C159.869 175.871 159.372 181.077 158.823 186.28C157.77 196.304 156.522 206.328 155.08 216.352C154.725 218.839 154.357 221.323 153.974 223.805C153.774 225.109 153.572 226.412 153.367 227.715V227.851L153.25 228.567L152.951 230.428C152.474 233.359 151.978 236.288 151.462 239.214L65.7887 197.342L68.284 195.967C91.1469 183.523 114.184 171.317 137.397 159.351Z" fill="#96CF40"/>
<path d="M125.469 153.286C121.166 151.057 116.877 148.804 112.601 146.527C103.768 141.816 95.009 137.006 86.3252 132.099L98.3195 126.3C112.792 134.376 127.473 142.181 142.362 149.713C147.02 152.071 151.698 154.401 156.394 156.701C158.712 157.837 161.033 158.966 163.356 160.088L166.758 161.721L168.206 162.401H168.247L168.663 162.215C169.961 161.606 171.242 160.976 172.523 160.353L179.743 156.873L194.374 149.821L215.102 139.797L227.52 145.84L203.565 157.389L188.734 164.549L181.123 168.215C178.719 169.375 176.341 170.664 173.845 171.68C173.429 171.852 173.011 172.007 172.589 172.146C171.253 187.377 169.481 202.573 167.274 217.734C190.204 211.419 213.003 204.791 235.671 197.85C241.965 195.941 248.248 193.986 254.52 191.986C253.882 182.937 254.896 173.858 257.522 165.079C257.922 163.756 258.36 162.444 258.837 161.141L269.899 166.511C269.106 168.959 268.455 171.437 267.945 173.943C267.806 174.625 267.676 175.31 267.554 175.998L267.512 176.248C267.47 176.535 267.421 176.828 267.387 177.115C267.199 178.494 267.049 179.878 266.938 181.268C266.716 184.092 266.664 186.924 266.78 189.752C266.836 191.141 266.933 192.528 267.071 193.912C267.138 194.604 267.218 195.296 267.312 195.989C267.351 196.285 267.39 196.581 267.429 196.876L267.512 197.471C267.612 198.187 267.445 197.134 267.429 196.97C267.785 199.787 268.411 202.575 269.3 205.304C270.093 208.052 271.053 210.762 272.178 213.423C272.494 214.168 272.824 214.91 273.168 215.65C273.34 216.018 273.515 216.385 273.692 216.753L273.809 216.989L274.324 217.941L263.511 223.19C259.998 216.661 257.482 209.768 256.025 202.683C233.467 209.772 210.776 216.55 187.952 223.018C181.226 224.927 174.488 226.803 167.74 228.646C167.063 228.828 166.351 228.894 165.644 228.839C165.533 229.555 165.419 230.271 165.303 230.987C164.56 235.608 163.775 240.226 162.949 244.842L151.479 239.235C151.989 236.309 152.485 233.381 152.968 230.45L153.267 228.588L153.383 227.872V227.736C153.589 226.433 153.791 225.13 153.991 223.827C154.373 221.345 154.742 218.86 155.097 216.373C156.533 206.349 157.781 196.325 158.84 186.301C159.394 181.098 159.891 175.893 160.329 170.685C158.549 169.854 156.794 168.959 155.039 168.1C150.264 165.785 145.512 163.444 140.782 161.076L137.397 159.351C114.195 171.284 91.1828 183.48 68.3588 195.939L65.8634 197.313L53.8608 191.442C73.1859 180.84 92.6662 170.403 112.302 160.131C116.688 157.84 121.077 155.558 125.469 153.286Z" fill="#96CF40"/>
<path style="mix-blend-mode:multiply" opacity="0.68" d="M197.127 186.559L191.812 182.263L167.266 192.244C169.761 193.354 173.446 195.265 176.981 197.041C183.956 193.931 190.686 190.429 197.127 186.559Z" fill="url(#paint0_linear)"/>
<path style="mix-blend-mode:multiply" opacity="0.68" d="M176.898 161.677L169.744 155.871L136.548 169.374C139.95 170.871 144.866 173.456 149.682 175.861C159.105 171.652 168.197 166.914 176.898 161.677Z" fill="url(#paint1_linear)"/>
<path style="mix-blend-mode:multiply" opacity="0.68" d="M234.657 198.187L227.503 192.38L194.307 205.891C197.709 207.387 202.625 209.972 207.441 212.378C216.864 208.166 225.956 203.425 234.657 198.187Z" fill="url(#paint2_linear)"/>
<path style="mix-blend-mode:multiply" opacity="0.68" d="M137.746 136.302L130.593 130.495L97.3962 143.992C100.798 145.488 105.714 148.073 110.53 150.479C119.953 146.272 129.045 141.536 137.746 136.302Z" fill="url(#paint3_linear)"/>
<path d="M132.223 78.356H129.495V134.648H132.223V78.356Z" fill="#404048"/>
<path d="M130.643 83.9622C135.122 83.9622 138.752 80.8366 138.752 76.9811C138.752 73.1255 135.122 70 130.643 70C126.164 70 122.533 73.1255 122.533 76.9811C122.533 80.8366 126.164 83.9622 130.643 83.9622Z" fill="#68E1FD"/>
<path d="M126.983 75.7639C127.911 75.7639 128.663 75.1163 128.663 74.3175C128.663 73.5187 127.911 72.8711 126.983 72.8711C126.055 72.8711 125.302 73.5187 125.302 74.3175C125.302 75.1163 126.055 75.7639 126.983 75.7639Z" fill="white"/>
<path opacity="0.4" d="M136.798 72.4417C137.496 74.0645 137.463 75.8539 136.704 77.4565C135.944 79.0591 134.515 80.3585 132.697 81.0981C131.138 81.8561 129.317 82.1138 127.558 81.8254C125.799 81.537 124.216 80.7212 123.09 79.5229C123.516 80.4719 124.178 81.3294 125.029 82.0351C125.881 82.7408 126.901 83.2778 128.019 83.6084C129.137 83.9391 130.325 84.0554 131.501 83.9492C132.676 83.843 133.811 83.5169 134.825 82.9937C135.838 82.4706 136.707 81.763 137.37 80.9205C138.032 80.078 138.473 79.121 138.661 78.1164C138.849 77.1119 138.78 76.0842 138.458 75.1052C138.136 74.1261 137.569 73.2195 136.798 72.4488V72.4417Z" fill="#3E3E4A"/>
<path d="M134.153 120.292L137.106 135.601C137.106 135.601 135.35 136.589 129.861 136.753C124.371 136.918 124.645 135.321 124.645 135.321L127.565 120.285L134.153 120.292Z" fill="#3E3E4A"/>
<path d="M130.859 121.717C132.678 121.717 134.153 121.079 134.153 120.292C134.153 119.505 132.678 118.867 130.859 118.867C129.04 118.867 127.565 119.505 127.565 120.292C127.565 121.079 129.04 121.717 130.859 121.717Z" fill="#55555F"/>
<path d="M130.85 138.415C134.305 138.415 137.105 137.203 137.105 135.708C137.105 134.213 134.305 133.001 130.85 133.001C127.396 133.001 124.595 134.213 124.595 135.708C124.595 137.203 127.396 138.415 130.85 138.415Z" fill="#3E3E4A"/>
<path d="M103.344 123.88C103.344 123.88 106.313 172.124 158.191 192.215C210.069 212.306 274.316 217.927 274.316 217.927L213.846 247.283C213.846 247.283 161.443 244.598 103.344 210.094C45.2437 175.59 60.1492 144.758 60.1492 144.758L103.344 123.88Z" fill="#68E1FD"/>
<path opacity="0.76" d="M103.344 123.88C103.344 123.88 106.313 172.124 158.191 192.215C210.069 212.306 274.316 217.927 274.316 217.927L213.846 247.283C213.846 247.283 161.443 244.598 103.344 210.094C45.2437 175.59 60.1492 144.758 60.1492 144.758L103.344 123.88Z" fill="white"/>
<path d="M160.404 200.392C149.965 195.53 143.144 186.745 137.771 177.909C131.799 168.093 127.623 157.46 126.309 146.405C126.251 145.954 125.419 145.947 125.477 146.405C126.948 157.563 130.878 168.377 137.056 178.267C142.495 187.203 149.432 196.088 159.988 201.007C160.454 201.229 160.878 200.614 160.404 200.392Z" fill="#111224"/>
<path d="M229.616 139.46H226.888V195.752H229.616V139.46Z" fill="#404048"/>
<path d="M228.036 145.066C232.515 145.066 236.146 141.941 236.146 138.085C236.146 134.23 232.515 131.104 228.036 131.104C223.557 131.104 219.926 134.23 219.926 138.085C219.926 141.941 223.557 145.066 228.036 145.066Z" fill="#68E1FD"/>
<path d="M224.376 136.868C225.304 136.868 226.056 136.22 226.056 135.422C226.056 134.623 225.304 133.975 224.376 133.975C223.448 133.975 222.696 134.623 222.696 135.422C222.696 136.22 223.448 136.868 224.376 136.868Z" fill="white"/>
<path opacity="0.4" d="M234.232 133.574C234.906 135.195 234.852 136.974 234.083 138.563C233.314 140.151 231.885 141.436 230.074 142.166C228.515 142.924 226.694 143.182 224.935 142.894C223.176 142.605 221.593 141.789 220.467 140.591C220.892 141.537 221.551 142.391 222.399 143.095C223.246 143.8 224.262 144.336 225.375 144.668C226.488 145 227.672 145.119 228.844 145.017C230.016 144.916 231.148 144.595 232.162 144.079C233.176 143.562 234.046 142.861 234.713 142.026C235.381 141.19 235.828 140.239 236.025 139.239C236.222 138.24 236.164 137.215 235.855 136.237C235.545 135.258 234.991 134.35 234.232 133.574Z" fill="#3E3E4A"/>
<path d="M231.546 181.397L234.499 196.705C234.499 196.705 232.744 197.693 227.254 197.857C221.764 198.022 222.039 196.425 222.039 196.425L224.958 181.389L231.546 181.397Z" fill="#3E3E4A"/>
<path d="M228.252 182.821C230.071 182.821 231.546 182.183 231.546 181.397C231.546 180.61 230.071 179.972 228.252 179.972C226.433 179.972 224.958 180.61 224.958 181.397C224.958 182.183 226.433 182.821 228.252 182.821Z" fill="#55555F"/>
<path d="M228.244 199.519C231.698 199.519 234.499 198.307 234.499 196.812C234.499 195.317 231.698 194.105 228.244 194.105C224.789 194.105 221.989 195.317 221.989 196.812C221.989 198.307 224.789 199.519 228.244 199.519Z" fill="#3E3E4A"/>
<path style="mix-blend-mode:multiply" opacity="0.68" d="M91.4075 206.363C94.8 207.66 98.0923 209.143 101.264 210.803C103.385 211.927 105.473 213.087 107.669 214.082L128.463 203.664L101.381 181.683L68.1925 195.151C74.2479 197.843 85.2107 203.943 91.4075 206.363Z" fill="url(#paint4_linear)"/>
<path d="M118.224 139.152C118.268 139.057 118.344 138.976 118.442 138.919C118.54 138.862 118.655 138.831 118.773 138.83C118.692 139.034 118.68 139.254 118.737 139.464C118.795 139.674 118.92 139.866 119.098 140.018C119.719 140.57 120.46 141.012 121.277 141.321C121.643 141.565 122.025 141.801 122.4 142.037C122.641 142.184 122.939 142.246 123.231 142.209C123.541 142.562 123.929 142.858 124.371 143.083C125.005 143.394 125.601 143.758 126.151 144.171C126.575 144.493 127.573 145.152 127.274 145.603C126.974 146.054 126.234 145.904 125.502 145.603L125.677 145.789C126.226 146.376 126.509 147.4 125.269 147.436C125.378 147.608 125.423 147.804 125.399 147.998C125.375 148.192 125.284 148.376 125.136 148.525C124.438 149.026 123.889 148.525 123.572 148.238C123.439 148.347 123.278 148.427 123.101 148.471C122.924 148.514 122.738 148.52 122.558 148.489C122.407 148.465 122.264 148.411 122.141 148.331C122.019 148.252 121.919 148.149 121.851 148.03C119.505 149.019 118.648 143.999 118.44 142.109C118.108 141.149 117.783 139.982 118.224 139.152Z" fill="#F9635C"/>
<path d="M122.774 146.033C122.789 145.927 122.829 145.824 122.892 145.732C122.955 145.639 123.039 145.559 123.14 145.496C122.524 145.407 121.966 145.13 121.568 144.715C121.328 144.437 121.176 144.11 121.126 143.767C121.076 143.423 121.131 143.074 121.285 142.754C121.303 142.715 121.338 142.683 121.382 142.667C121.426 142.65 121.477 142.649 121.522 142.664C121.567 142.679 121.604 142.709 121.623 142.748C121.643 142.786 121.644 142.829 121.626 142.868C121.485 143.159 121.441 143.478 121.5 143.79C121.559 144.101 121.718 144.392 121.959 144.63C122.459 145.027 123.108 145.258 123.789 145.281H123.855C123.852 145.245 123.852 145.209 123.855 145.174C124.155 144.408 125.194 144.988 125.519 145.403C125.652 145.568 125.369 145.768 125.228 145.603C125.086 145.439 124.779 145.109 124.462 145.124C123.855 145.124 124.396 145.961 124.462 146.112C124.71 146.541 124.988 146.957 125.294 147.358C125.427 147.529 125.136 147.73 125.003 147.558C124.67 147.135 124.367 146.695 124.096 146.241C123.964 146.044 123.858 145.835 123.78 145.618C122.267 145.661 123.298 147.358 123.622 148.045C123.714 148.231 123.373 148.367 123.281 148.174C122.964 147.594 122.75 146.976 122.649 146.341C122.109 146.262 121.476 146.341 121.568 146.942C121.648 147.293 121.768 147.636 121.926 147.966C122 148.16 121.659 148.288 121.584 148.095C121.401 147.608 121.019 146.971 121.26 146.455C121.501 145.94 122.275 145.961 122.774 146.033Z" fill="#111224"/>
<path d="M118.116 130.495C119.089 134.892 120.761 138.837 123.938 142.238C123.747 142.689 122.558 144.766 116.61 144.766L111.27 138.701L118.116 130.495Z" fill="#E25096"/>
<path d="M106.479 117.693C104.866 117.822 100.316 115.674 97.0885 121.653C93.8612 127.631 99.9831 130.08 96.3649 131.584C92.7466 133.087 88.9537 134.555 91.6653 138.415C94.3769 142.274 99.9831 143.906 102.271 140.018C104.558 136.13 109.074 126.178 107.602 119.204" fill="#111224"/>
<path d="M118.873 188.306V195.151C118.662 195.708 118.247 196.191 117.691 196.529C117.135 196.867 116.467 197.042 115.787 197.027C115.148 197.051 114.521 196.866 114.033 196.511C113.544 196.155 113.229 195.654 113.15 195.108L112.518 188.785" fill="#F9635C"/>
<path d="M111.412 194.671C111.561 194.134 112.784 193.568 113 193.561C113.217 193.554 113.1 194.592 113.1 194.592C114.298 196.21 116.694 196.218 116.985 195.917C117.276 195.616 116.003 194.062 116.544 193.69C117.496 193.333 118.541 193.202 119.572 193.31C119.863 193.439 119.255 195.208 119.33 195.33C120.071 196.611 122.034 197.735 123.489 198.38C124.945 199.024 126.118 199.411 126.875 200.678C127.105 201.028 127.226 201.422 127.226 201.824C127.226 202.226 127.105 202.62 126.875 202.97C126.276 203.686 124.912 203.829 123.963 203.8C121.559 203.728 119.239 202.705 117.176 201.716C115.294 200.887 113.509 199.904 111.844 198.781C111.512 198.537 111.262 195.215 111.412 194.671Z" fill="#68E1FD"/>
<path d="M101.223 178.804C101.78 178.525 102.442 178.443 103.069 178.575C103.244 178.661 102.587 179.427 102.587 179.427C102.645 181.174 104.516 182.148 104.907 182.034C105.298 181.919 105.149 180.193 105.739 180.107C106.679 180.211 107.57 180.53 108.318 181.031C108.476 181.246 107.037 182.392 107.028 182.513C106.912 183.816 107.86 185.485 108.6 186.566C109.341 187.647 110.089 188.435 109.998 189.731C109.991 190.097 109.877 190.455 109.664 190.772C109.452 191.089 109.148 191.354 108.783 191.542C107.952 191.879 106.779 191.42 106.055 191.019C104.217 189.988 102.953 188.256 101.896 186.652C100.873 185.242 100.01 183.75 99.3178 182.198C99.2013 181.869 100.815 179.17 101.223 178.804Z" fill="#68E1FD"/>
<path opacity="0.68" d="M111.412 194.671C111.561 194.134 112.784 193.568 113 193.561C113.217 193.554 113.1 194.592 113.1 194.592C114.298 196.21 116.694 196.218 116.985 195.917C117.276 195.616 116.003 194.062 116.544 193.69C117.496 193.333 118.541 193.202 119.572 193.31C119.863 193.439 119.255 195.208 119.33 195.33C120.071 196.611 122.034 197.735 123.489 198.38C124.945 199.024 126.118 199.411 126.875 200.678C127.105 201.028 127.226 201.422 127.226 201.824C127.226 202.226 127.105 202.62 126.875 202.97C126.276 203.686 124.912 203.829 123.963 203.8C121.559 203.728 119.239 202.705 117.176 201.716C115.294 200.887 113.509 199.904 111.844 198.781C111.512 198.537 111.262 195.215 111.412 194.671Z" fill="#111224"/>
<path d="M111.329 175.991L106.87 182.084C106.87 182.084 105.556 183.193 103.493 182.084C101.43 180.974 102.379 179.936 102.379 179.936L105.614 173.556" fill="#F9635C"/>
<path opacity="0.68" d="M101.223 178.804C101.78 178.525 102.442 178.443 103.069 178.575C103.244 178.661 102.587 179.427 102.587 179.427C102.645 181.174 104.516 182.148 104.907 182.034C105.298 181.919 105.149 180.193 105.739 180.107C106.679 180.211 107.57 180.53 108.318 181.031C108.476 181.246 107.037 182.392 107.028 182.513C106.912 183.816 107.86 185.485 108.6 186.566C109.341 187.647 110.089 188.435 109.998 189.731C109.991 190.097 109.877 190.455 109.664 190.772C109.452 191.089 109.148 191.354 108.783 191.542C107.952 191.879 106.779 191.42 106.055 191.019C104.217 189.988 102.953 188.256 101.896 186.652C100.873 185.242 100.01 183.75 99.3178 182.198C99.2013 181.869 100.815 179.17 101.223 178.804Z" fill="#111224"/>
<path d="M116.536 141.629C118.415 142.095 123.672 163.109 122.666 165.308C121.659 167.506 109.524 183.208 107.785 182.592C106.047 181.976 102.661 176.048 103.443 174.644C104.225 173.241 110.929 162.422 110.929 162.422L109.565 142.646" fill="#68E1FD"/>
<path d="M103.443 143.971C103.443 143.971 107.436 188.041 109.549 190.21C111.661 192.38 119.064 193.074 120.146 192.358C121.227 191.642 117.01 148.682 111.828 142.675" fill="#68E1FD"/>
<path d="M116.536 141.629C117.159 141.085 121.027 127.366 118.49 124.345C115.953 121.323 104.417 126.343 102.686 128.519C100.956 130.696 103.893 140.212 104.109 141.629C104.325 143.047 111.894 145.66 116.536 141.629Z" fill="#F877AF"/>
<path d="M114.573 119.97C114.656 120.328 114.939 126.271 111.57 127.266C108.201 128.261 104.25 122.147 105.889 119.233C107.527 116.318 113.624 115.882 114.573 119.97Z" fill="#F9635C"/>
<path d="M108.509 120.966C107.943 121.603 107.927 123.271 108.135 124.066C108.177 124.43 108.177 124.797 108.135 125.161C108.175 125.478 108.195 125.796 108.193 126.114C107.874 125.897 107.576 125.657 107.303 125.398C107.245 125.435 107.177 125.459 107.105 125.465C107.033 125.471 106.96 125.461 106.895 125.433C106.765 125.378 106.643 125.311 106.529 125.233C106.247 125.068 105.914 124.975 105.623 124.825C105.057 124.487 104.65 123.987 104.475 123.414C104.19 122.801 104.014 122.154 103.951 121.495C103.804 120.186 104.093 118.867 104.783 117.693C106.604 114.7 111.262 114.636 114.123 116.598C113.982 116.34 113.641 115.56 114.639 115.746C115.829 115.961 116.777 118.03 116.777 118.03C116.952 117.665 116.361 116.677 116.361 116.677C116.361 116.677 117.767 116.891 117.534 118.86C117.301 120.83 114.573 122.04 113.691 120.343C112.809 118.646 112.551 118.868 112.551 118.868C113.45 120.264 112.601 121.281 110.613 121.603C110.229 121.7 109.819 121.692 109.441 121.577C109.064 121.463 108.737 121.249 108.509 120.966Z" fill="#111224"/>
<path d="M106.92 122.677C107 122.546 107.114 122.432 107.253 122.345C107.391 122.257 107.551 122.198 107.721 122.172C107.89 122.146 108.064 122.153 108.229 122.194C108.395 122.234 108.547 122.306 108.675 122.405C109.05 122.769 109.333 123.195 109.507 123.658C109.562 123.785 109.562 123.925 109.507 124.052C109.581 124.168 109.619 124.299 109.619 124.431C109.619 124.564 109.581 124.694 109.507 124.811C109.386 124.978 109.195 125.099 108.974 125.148C108.752 125.197 108.517 125.171 108.318 125.076C107.469 124.703 106.33 123.55 106.92 122.677Z" fill="#F9635C"/>
<path d="M107.785 125.577C109.044 125.577 110.064 124.698 110.064 123.615C110.064 122.531 109.044 121.653 107.785 121.653C106.526 121.653 105.506 122.531 105.506 123.615C105.506 124.698 106.526 125.577 107.785 125.577Z" fill="#68E1FD"/>
<path d="M112.926 115.867C112.926 115.867 107.328 116.87 108.018 122.59L106.263 122.118C106.263 122.118 105.015 117.221 111.137 115.209C111.477 115.168 111.823 115.207 112.138 115.323C112.453 115.439 112.726 115.628 112.926 115.867Z" fill="#68E1FD"/>
<path d="M102.811 156.2C102.868 156.093 102.966 156.007 103.09 155.957C103.213 155.907 103.353 155.897 103.485 155.928C103.485 155.305 104.674 155.119 104.807 155.777C104.857 156.016 104.916 156.255 104.982 156.493C105.052 156.438 105.135 156.397 105.226 156.373C105.317 156.349 105.412 156.342 105.506 156.354C105.6 156.366 105.69 156.395 105.769 156.44C105.848 156.485 105.915 156.545 105.964 156.615C106.075 156.635 106.178 156.683 106.258 156.753C106.338 156.823 106.392 156.912 106.413 157.009L106.854 158.534C107.165 159.136 107.67 159.647 108.309 160.009C108.884 160.318 109.422 160.675 109.915 161.076C110.289 161.384 111.195 162.028 110.896 162.408C110.597 162.787 109.923 162.651 109.232 162.408L109.382 162.579C109.865 163.138 110.214 164.011 109.216 164.319C109.298 164.453 109.318 164.608 109.274 164.754C109.229 164.899 109.122 165.026 108.975 165.107C108.309 165.551 107.752 165.229 107.311 164.785C107.183 164.881 107.031 164.95 106.865 164.985C106.7 165.02 106.528 165.02 106.363 164.985C106.009 164.823 105.719 164.574 105.531 164.269C103.51 164.871 102.961 160.732 102.844 158.971C102.603 158.047 102.354 156.952 102.811 156.2Z" fill="#F9635C"/>
<path d="M102.678 128.519C102.678 128.519 99.1679 130.896 98.9849 139.152C98.802 147.408 102.129 159.35 102.129 159.35C102.129 159.35 109.257 159.68 109.549 158.434C109.84 157.188 107.22 138.808 107.22 138.808" fill="#F877AF"/>
<path d="M108.309 132.443C108.351 131.985 107.519 131.985 107.477 132.443C106.706 140.738 107.159 149.084 108.825 157.281C108.916 157.732 109.715 157.539 109.657 157.088C108 148.955 107.547 140.674 108.309 132.443Z" fill="#E25096"/>
<path style="mix-blend-mode:multiply" opacity="0.68" d="M131.832 228.395C135.225 229.692 138.517 231.174 141.689 232.834C143.81 233.958 137.879 228.481 140.075 229.476L164.729 216.781L141.813 203.743L108.634 217.211C114.672 219.881 125.635 225.982 131.832 228.395Z" fill="url(#paint5_linear)"/>
<path d="M138.802 199.583C138.802 199.583 138.536 202.798 139.227 203.843C139.917 204.889 141.048 206.313 142.313 205.827C143.577 205.34 142.487 204.108 141.747 203.249C141.588 203.076 141.481 202.872 141.433 202.656C141.385 202.439 141.399 202.216 141.474 202.005C141.548 201.794 141.681 201.601 141.86 201.444C142.039 201.287 142.26 201.169 142.504 201.101C143.569 200.7 141.597 199.06 138.802 199.583Z" fill="#DB5531"/>
<path d="M161.868 209.263C161.818 209.471 161.144 214.626 161.585 215.514C162.026 216.402 163.972 217.719 164.729 216.774C165.486 215.829 165.095 215.378 164.488 214.762C164.488 214.762 165.145 210.33 165.319 209.85" fill="#DB5531"/>
<path d="M168.081 205.454L168.006 205.554C166.892 206.936 166.95 208.662 166.101 210.151C165.403 211.368 164.172 212.808 162.483 213.015C158.457 213.531 155.721 213.237 151.67 210.287C147.619 207.337 144.483 201.889 141.689 200.786C138.894 199.683 137.064 202.776 134.76 201.967C132.456 201.158 132.448 200.535 132.448 200.535C133.31 199.707 133.901 198.696 134.161 197.607C134.502 195.91 136.656 191.936 142.545 193.626C148.434 195.316 155.887 201.237 159.372 200.879C162.857 200.521 164.504 196.017 167.757 198.23C168.487 198.683 169.082 199.279 169.494 199.968C169.906 200.658 170.123 201.421 170.127 202.196C170.077 203.528 168.938 204.459 168.081 205.454Z" fill="#FF815A"/>
<path d="M157.326 212.557C157.326 212.765 157.817 217.941 158.449 218.736C159.081 219.531 161.285 220.504 161.818 219.452C162.35 218.399 161.868 218.02 161.136 217.519C161.136 217.519 160.795 213.065 160.895 212.557" fill="#FF815A"/>
<path d="M132.439 200.55C132.439 200.55 132.173 203.764 132.863 204.81C133.554 205.855 134.685 207.28 135.949 206.793C137.214 206.306 136.124 205.075 135.384 204.216C135.225 204.042 135.117 203.839 135.07 203.622C135.022 203.406 135.036 203.182 135.11 202.971C135.185 202.76 135.317 202.568 135.497 202.411C135.676 202.253 135.897 202.136 136.141 202.067C137.189 201.674 135.251 200.034 132.439 200.55Z" fill="#FF815A"/>
<path d="M136.964 193.912C136.964 193.912 134.203 194.864 132.988 193.604C131.774 192.344 133.038 190.962 133.62 190.54C133.62 190.54 130.351 190.454 130.551 193.604C130.751 196.755 135.392 196.168 136.532 195.28" fill="#FF815A"/>
<path d="M174.128 198.344C174.128 198.344 175.268 195.48 172.465 194.499C169.661 193.518 168.988 195.466 168.988 195.466L174.128 198.344Z" fill="#DB5531"/>
<path d="M162.383 201.495C162.383 201.495 160.321 197.471 166.401 195.459C166.401 195.459 168.946 193.719 171.225 194.914C173.504 196.11 174.253 197.413 174.128 198.337C174.128 198.337 178.994 200.836 178.611 201.487C178.261 202.245 177.615 202.873 176.785 203.265C175.955 203.657 174.992 203.788 174.062 203.636C171.159 203.149 168.123 202.712 168.123 202.712" fill="#FF815A"/>
<path d="M167.998 196.397C167.667 196.136 167.263 195.954 166.825 195.868C166.388 195.783 165.932 195.797 165.503 195.91C163.007 196.519 159.322 200.636 162.558 202.354C164.263 203.263 166.343 201.638 167.382 200.6C168.014 200.037 168.511 199.373 168.846 198.645C168.957 198.239 168.936 197.815 168.786 197.419C168.637 197.023 168.364 196.669 167.998 196.397Z" fill="#DB5531"/>
<path d="M178.611 201.495C178.507 201.158 178.28 200.859 177.963 200.642C177.405 200.241 176.515 200.456 176.582 201.072C176.648 201.688 177.78 202.655 178.054 202.304C178.329 201.953 178.611 201.495 178.611 201.495Z" fill="#DB5531"/>
<path d="M168.073 205.447C164.38 206.406 161.793 203.614 161.102 200.822C160.994 200.371 160.187 200.564 160.271 201.015C161.102 204.201 164.155 207.208 168.264 206.142C168.364 206.114 168.447 206.055 168.499 205.977C168.55 205.898 168.565 205.806 168.541 205.718C168.517 205.631 168.455 205.554 168.369 205.504C168.282 205.453 168.176 205.433 168.073 205.447Z" fill="#111224"/>
<path style="mix-blend-mode:multiply" opacity="0.68" d="M267.238 191.571L260.084 185.764L226.888 199.26C230.29 200.757 235.206 203.342 240.022 205.748C249.445 201.54 258.536 196.804 267.238 191.571Z" fill="url(#paint6_linear)"/>
<path d="M174.677 111.407H169.029C168.106 111.407 167.357 112.051 167.357 112.846V161.269C167.357 162.064 168.106 162.709 169.029 162.709H174.677C175.6 162.709 176.349 162.064 176.349 161.269V112.846C176.349 112.051 175.6 111.407 174.677 111.407Z" fill="#BC532A"/>
<path d="M194.049 121.903C191.978 114.163 182.77 80.0455 166.451 90.0768C158.091 95.2105 155.729 103.244 152.385 111.091C149.616 117.593 147.32 124.438 147.187 131.412C146.921 145.61 163.698 147.343 176.532 147.286C183.935 147.286 194.49 143.498 196.22 136.545C197.26 132.371 195.488 127.452 194.448 123.371C194.315 122.894 194.182 122.404 194.049 121.903Z" fill="#2C9135"/>
<path d="M194.831 123.407C194.703 122.906 194.573 122.402 194.44 121.896C192.602 115.051 185.191 87.5853 172.215 88.2441C176.066 102.722 181.747 118.023 178.719 132.837C177.748 138.01 175.396 142.92 171.849 147.179C173.571 147.25 175.276 147.272 176.914 147.272C184.317 147.272 194.873 143.484 196.603 136.532C197.634 132.414 195.871 127.496 194.831 123.407Z" fill="#156819"/>
<path d="M195.995 151.432H192.618C191.819 151.432 191.171 151.989 191.171 152.677V185.95C191.171 186.638 191.819 187.196 192.618 187.196H195.995C196.795 187.196 197.443 186.638 197.443 185.95V152.677C197.443 151.989 196.795 151.432 195.995 151.432Z" fill="#BC532A"/>
<path d="M209.778 158.749C208.331 153.35 201.918 129.565 190.531 136.553C184.708 140.133 183.045 145.732 180.724 151.209C178.794 155.742 177.189 160.518 177.097 165.379C176.914 175.274 188.609 176.485 197.559 176.449C202.716 176.449 210.078 173.807 211.284 168.988C212.007 166.081 210.776 162.651 210.053 159.802C209.964 159.453 209.872 159.102 209.778 158.749Z" fill="#2C9135"/>
<path d="M210.327 159.802C210.238 159.453 210.147 159.102 210.053 158.749C208.772 153.973 203.606 134.827 194.557 135.3C197.243 145.395 201.211 156.064 199.09 166.389C198.419 170.004 196.782 173.436 194.307 176.413C195.505 176.463 196.694 176.477 197.834 176.477C202.991 176.477 210.352 173.835 211.558 169.017C212.29 166.081 211.051 162.651 210.327 159.802Z" fill="#156819"/>
<path d="M265.948 142.417H260.7C259.776 142.417 259.028 143.061 259.028 143.856V190.017C259.028 190.812 259.776 191.457 260.7 191.457H265.948C266.872 191.457 267.62 190.812 267.62 190.017V143.856C267.62 143.061 266.872 142.417 265.948 142.417Z" fill="#BC532A"/>
<path d="M284.539 152.455C282.559 145.052 273.725 112.445 258.155 122.032C250.161 126.944 247.907 134.62 244.705 142.123C242.06 148.338 239.855 154.882 239.714 161.548C239.464 175.153 255.518 176.778 267.762 176.728C274.84 176.728 284.93 173.105 286.576 166.496C287.575 162.508 285.878 157.804 284.913 153.902C284.796 153.415 284.672 152.933 284.539 152.455Z" fill="#2C9135"/>
<path d="M285.287 153.888C285.165 153.41 285.041 152.933 284.913 152.456C283.158 145.911 276.071 119.655 263.669 120.3C267.354 134.14 272.819 148.761 269.891 162.924C268.97 167.868 266.729 172.562 263.345 176.635C265.009 176.707 266.622 176.728 268.186 176.721C275.264 176.721 285.354 173.098 287.001 166.489C287.974 162.501 286.277 157.797 285.287 153.888Z" fill="#156819"/>
<path d="M114.581 147.35C114.456 146.906 113.649 147.093 113.749 147.544C117.921 162.203 119.837 177.27 119.447 192.359C119.447 192.453 119.491 192.545 119.569 192.612C119.647 192.679 119.752 192.717 119.863 192.717C119.973 192.717 120.079 192.679 120.157 192.612C120.235 192.545 120.279 192.453 120.279 192.359C120.678 177.206 118.763 162.073 114.581 147.35Z" fill="#111224"/>
</g>
<defs>
<filter id="filter0_d" x="0" y="0" width="334" height="334" filterUnits="userSpaceOnUse" color-interpolation-filters="sRGB">
<feFlood flood-opacity="0" result="BackgroundImageFix"/>
<feColorMatrix in="SourceAlpha" type="matrix" values="0 0 0 0 0 0 0 0 0 0 0 0 0 0 0 0 0 0 127 0"/>
<feOffset dy="4"/>
<feGaussianBlur stdDeviation="2"/>
<feColorMatrix type="matrix" values="0 0 0 0 0 0 0 0 0 0 0 0 0 0 0 0 0 0 0.25 0"/>
<feBlend mode="normal" in2="BackgroundImageFix" result="effect1_dropShadow"/>
<feBlend mode="normal" in="SourceGraphic" in2="effect1_dropShadow" result="shape"/>
</filter>
<linearGradient id="paint0_linear" x1="194.191" y1="179.578" x2="180.308" y2="194.91" gradientUnits="userSpaceOnUse">
<stop stop-color="#00A99D"/>
<stop offset="1" stop-color="white"/>
</linearGradient>
<linearGradient id="paint1_linear" x1="8379.59" y1="2776.67" x2="7948" y2="3605.07" gradientUnits="userSpaceOnUse">
<stop stop-color="#00A99D"/>
<stop offset="1" stop-color="white"/>
</linearGradient>
<linearGradient id="paint2_linear" x1="11239.2" y1="3833.82" x2="10807.4" y2="4662.39" gradientUnits="userSpaceOnUse">
<stop stop-color="#00A99D"/>
<stop offset="1" stop-color="white"/>
</linearGradient>
<linearGradient id="paint3_linear" x1="6439.97" y1="2042.13" x2="6008.63" y2="2870.36" gradientUnits="userSpaceOnUse">
<stop stop-color="#00A99D"/>
<stop offset="1" stop-color="white"/>
</linearGradient>
<linearGradient id="paint4_linear" x1="8600.13" y1="5663.97" x2="7936.04" y2="6935.96" gradientUnits="userSpaceOnUse">
<stop stop-color="#00A99D"/>
<stop offset="1" stop-color="white"/>
</linearGradient>
<linearGradient id="paint5_linear" x1="10441.4" y1="6092.95" x2="9768.65" y2="7198.89" gradientUnits="userSpaceOnUse">
<stop stop-color="#00A99D"/>
<stop offset="1" stop-color="white"/>
</linearGradient>
<linearGradient id="paint6_linear" x1="12852.3" y1="3639.78" x2="12420.9" y2="4468.01" gradientUnits="userSpaceOnUse">
<stop stop-color="#00A99D"/>
<stop offset="1" stop-color="white"/>
</linearGradient>
</defs>
</svg>
